# xmcd
#
# Track frame offsets:
# 182
# 11110
# 32967
# 49007
# 66742
# 81430
# 95415
# 107300
# 118957
# 131745
# 148027
# 161685
# 173520
# 185420
#
# Disc length: 2668 seconds
#
#
# Revision: 0
# Processed by: cddbd v1.4PL0 Copyright (c) Steve Scherf et al.
# Submitted via: FreeRIP 2.35 
#
DISCID=c80a6a0e
DTITLE=Various Artist - Country Duets
DYEAR=1989
DGENRE=Country
TTITLE0=George Jones/Tammy Wynette - Near You
TTITLE1=Willie Nelson/Merle Haggard - Poncho and Lefty
TTITLE2=Judds - Why Not Me?
TTITLE3=Eddie Rabbitt/Jice Newton - Both to Each Other
TTITLE4=Charlie Rich/Janie Fricke - On My Knees
TTITLE5=Jim Ed Brown/Helen Cornelius - I Don't Want to have to Marry You
TTITLE6=Moe Bandy/Joe Stampley - Just Good Ol' Boys
TTITLE7=Waylon Jennings/Willie Nelson - Mamas Don't Let Your Babies Grow Up to be Cowboys
TTITLE8=Porter Waggoner/Dolly Parton - Please Don't Stop Loving Me
TTITLE9=David Houston/Tammy Wynette - My Elusive Dreams
TTITLE10=Charlie McLain/Mickey Gilley - Paradise Tonight
TTITLE11=Dave and Sugar - Tear Time
TTITLE12=Roy Drusky/Priscilla Mitchell - Yes, Mr. Peters
TTITLE13=Merle Haggard/George Jones - Yesterday's Wine
EXTD=Part of a series
EXTT0=
EXTT1=
EXTT2=
EXTT3=
EXTT4=
EXTT5=
EXTT6=
EXTT7=
EXTT8=
EXTT9=
EXTT10=
EXTT11=
EXTT12=
EXTT13=
PLAYORDER=
